<?xml version="1.0" encoding="UTF-8"?>
<svg xmlns="http://www.w3.org/2000/svg"
     xmlns:xlink="http://www.w3.org/1999/xlink"
     version="1.2"
     width="100mm" height="100mm" viewBox="0 0 100 100"
     stroke="none"
     fill="#000000"
     stroke-width="0.3"
     font-size="3.88"
>
<defs>
  <marker id="arrow" markerWidth="15" markerHeight="7" refX="5" refY="3.5" orient="auto" markerUnits="strokeWidth">
    <path d="M0,0 L15,3.5 L0,7 z" stroke="context-stroke" fill="context-stroke"/>
  </marker>
</defs>
<g stroke-width="1" fill="#000000" fill-opacity="0.000" stroke="#D3D3D3" id="img-b56ba72d-1">
  <g transform="translate(80.49,13.33)">
    <path fill="none" d="M-10.22,4.57 L 10.22 -4.57" class="primitive"/>
  </g>
  <g transform="translate(60.36,30.22)">
    <path fill="none" d="M4.92,-7.95 L -4.92 7.95" class="primitive"/>
  </g>
  <g transform="translate(51.67,15.47)">
    <path fill="none" d="M12.06,3.01 L -12.06 -3.01" class="primitive"/>
  </g>
  <g transform="translate(42.89,46.19)">
    <path fill="none" d="M-11.1,6.61 L 11.1 -6.61" class="primitive"/>
  </g>
  <g transform="translate(18.68,46.01)">
    <path fill="none" d="M7.47,6.32 L -7.47 -6.32" class="primitive"/>
  </g>
  <g transform="translate(23.04,66.04)">
    <path fill="none" d="M4.2,-8.36 L -4.2 8.36" class="primitive"/>
  </g>
  <g transform="translate(27.04,16.21)">
    <path fill="none" d="M-10.57,3.66 L 10.57 -3.66" class="primitive"/>
  </g>
  <g transform="translate(11.62,31.21)">
    <path fill="none" d="M1.04,-6.78 L -1.04 6.78" class="primitive"/>
  </g>
  <g transform="translate(13.99,82.46)">
    <path fill="none" d="M-3.84,6.25 L 3.84 -6.25" class="primitive"/>
  </g>
</g>
<g stroke-width="1" stroke="#D3D3D3" id="img-b56ba72d-2">
</g>
<g font-size="4" stroke="#000000" stroke-opacity="0.000" fill="#000000" id="img-b56ba72d-3">
</g>
<g stroke-width="0" stroke="#000000" stroke-opacity="0.000" id="img-b56ba72d-4">
  <g transform="translate(67.1,19.32)" fill="#2E8B57">
    <circle cx="0" cy="0" r="3.33" class="primitive"/>
  </g>
  <g transform="translate(28.81,54.58)" fill="#2E8B57">
    <circle cx="0" cy="0" r="3.33" class="primitive"/>
  </g>
  <g transform="translate(13.19,21)" fill="#2E8B57">
    <circle cx="0" cy="0" r="3.33" class="primitive"/>
  </g>
  <g transform="translate(91.67,8.33)" fill="#00CDCD">
    <circle cx="0" cy="0" r="1" class="primitive"/>
  </g>
  <g transform="translate(54.89,39.05)" fill="#00CDCD">
    <circle cx="0" cy="0" r="1" class="primitive"/>
  </g>
  <g transform="translate(38.6,12.21)" fill="#00CDCD">
    <circle cx="0" cy="0" r="1" class="primitive"/>
  </g>
  <g transform="translate(10.42,39.02)" fill="#00CDCD">
    <circle cx="0" cy="0" r="1" class="primitive"/>
  </g>
  <g transform="translate(8.33,91.67)" fill="#2E8B57">
    <circle cx="0" cy="0" r="3.33" class="primitive"/>
  </g>
  <g transform="translate(18.37,75.33)" fill="#00CDCD">
    <circle cx="0" cy="0" r="1" class="primitive"/>
  </g>
</g>
<g font-size="4" stroke="#000000" stroke-opacity="0.000" fill="#000000" id="img-b56ba72d-5">
  <g transform="translate(67.1,19.32)">
    <g class="primitive">
      <text text-anchor="middle" dy="0.35em">x0</text>
    </g>
  </g>
  <g transform="translate(28.81,54.58)">
    <g class="primitive">
      <text text-anchor="middle" dy="0.35em">x1</text>
    </g>
  </g>
  <g transform="translate(13.19,21)">
    <g class="primitive">
      <text text-anchor="middle" dy="0.35em">l0</text>
    </g>
  </g>
  <g transform="translate(91.67,8.33)">
    <g class="primitive">
      <text text-anchor="middle" dy="0.35em"></text>
    </g>
  </g>
  <g transform="translate(54.89,39.05)">
    <g class="primitive">
      <text text-anchor="middle" dy="0.35em"></text>
    </g>
  </g>
  <g transform="translate(38.6,12.21)">
    <g class="primitive">
      <text text-anchor="middle" dy="0.35em"></text>
    </g>
  </g>
  <g transform="translate(10.42,39.02)">
    <g class="primitive">
      <text text-anchor="middle" dy="0.35em"></text>
    </g>
  </g>
  <g transform="translate(8.33,91.67)">
    <g class="primitive">
      <text text-anchor="middle" dy="0.35em">x2</text>
    </g>
  </g>
  <g transform="translate(18.37,75.33)">
    <g class="primitive">
      <text text-anchor="middle" dy="0.35em"></text>
    </g>
  </g>
</g>
</svg>
