<?xml version="1.0" encoding="UTF-8"?>
<svg xmlns="http://www.w3.org/2000/svg"
     xmlns:xlink="http://www.w3.org/1999/xlink"
     version="1.2"
     width="100mm" height="100mm" viewBox="0 0 100 100"
     stroke="none"
     fill="#000000"
     stroke-width="0.3"
     font-size="3.88"
>
<defs>
  <marker id="arrow" markerWidth="15" markerHeight="7" refX="5" refY="3.5" orient="auto" markerUnits="strokeWidth">
    <path d="M0,0 L15,3.5 L0,7 z" stroke="context-stroke" fill="context-stroke"/>
  </marker>
</defs>
<g stroke-width="1" fill="#000000" fill-opacity="0.000" stroke="#D3D3D3" id="img-7bdf21cf-1">
  <g transform="translate(14.01,81.32)">
    <path fill="none" d="M5.17,-9.43 L -5.17 9.43" class="primitive"/>
  </g>
  <g transform="translate(31.55,67.09)">
    <path fill="none" d="M-7.28,1.19 L 7.28 -1.19" class="primitive"/>
  </g>
  <g transform="translate(19.79,49.54)">
    <path fill="none" d="M0.87,15.83 L -0.87 -15.83" class="primitive"/>
  </g>
  <g transform="translate(47.51,56.51)">
    <path fill="none" d="M6.99,-8.43 L -6.99 8.43" class="primitive"/>
  </g>
  <g transform="translate(51.04,29.3)">
    <path fill="none" d="M4.53,12.83 L -4.53 -12.83" class="primitive"/>
  </g>
  <g transform="translate(67.7,47.22)">
    <path fill="none" d="M-7.55,-1.25 L 7.55 1.25" class="primitive"/>
  </g>
  <g transform="translate(23.96,21.61)">
    <path fill="none" d="M4.67,-10.12 L -4.67 10.12" class="primitive"/>
  </g>
  <g transform="translate(39.23,12.41)">
    <path fill="none" d="M-5.97,-2.66 L 5.97 2.66" class="primitive"/>
  </g>
  <g transform="translate(82.77,49.59)">
    <path fill="none" d="M5.46,0.8 L -5.46 -0.8" class="primitive"/>
  </g>
</g>
<g stroke-width="1" stroke="#D3D3D3" id="img-7bdf21cf-2">
</g>
<g font-size="4" stroke="#000000" stroke-opacity="0.000" fill="#000000" id="img-7bdf21cf-3">
</g>
<g stroke-width="0" stroke="#000000" stroke-opacity="0.000" id="img-7bdf21cf-4">
  <g transform="translate(20.85,68.84)" fill="#2E8B57">
    <circle cx="0" cy="0" r="3.33" class="primitive"/>
  </g>
  <g transform="translate(56.73,45.4)" fill="#2E8B57">
    <circle cx="0" cy="0" r="3.33" class="primitive"/>
  </g>
  <g transform="translate(30.09,8.33)" fill="#2E8B57">
    <circle cx="0" cy="0" r="3.33" class="primitive"/>
  </g>
  <g transform="translate(8.33,91.67)" fill="#00CDCD">
    <circle cx="0" cy="0" r="1" class="primitive"/>
  </g>
  <g transform="translate(39.86,65.74)" fill="#00CDCD">
    <circle cx="0" cy="0" r="1" class="primitive"/>
  </g>
  <g transform="translate(18.86,32.67)" fill="#00CDCD">
    <circle cx="0" cy="0" r="1" class="primitive"/>
  </g>
  <g transform="translate(46.16,15.49)" fill="#00CDCD">
    <circle cx="0" cy="0" r="1" class="primitive"/>
  </g>
  <g transform="translate(91.67,50.9)" fill="#2E8B57">
    <circle cx="0" cy="0" r="3.33" class="primitive"/>
  </g>
  <g transform="translate(76.28,48.64)" fill="#00CDCD">
    <circle cx="0" cy="0" r="1" class="primitive"/>
  </g>
</g>
<g font-size="4" stroke="#000000" stroke-opacity="0.000" fill="#000000" id="img-7bdf21cf-5">
  <g transform="translate(20.85,68.84)">
    <g class="primitive">
      <text text-anchor="middle" dy="0.35em">x0</text>
    </g>
  </g>
  <g transform="translate(56.73,45.4)">
    <g class="primitive">
      <text text-anchor="middle" dy="0.35em">x1</text>
    </g>
  </g>
  <g transform="translate(30.09,8.33)">
    <g class="primitive">
      <text text-anchor="middle" dy="0.35em">l0</text>
    </g>
  </g>
  <g transform="translate(8.33,91.67)">
    <g class="primitive">
      <text text-anchor="middle" dy="0.35em"></text>
    </g>
  </g>
  <g transform="translate(39.86,65.74)">
    <g class="primitive">
      <text text-anchor="middle" dy="0.35em"></text>
    </g>
  </g>
  <g transform="translate(18.86,32.67)">
    <g class="primitive">
      <text text-anchor="middle" dy="0.35em"></text>
    </g>
  </g>
  <g transform="translate(46.16,15.49)">
    <g class="primitive">
      <text text-anchor="middle" dy="0.35em"></text>
    </g>
  </g>
  <g transform="translate(91.67,50.9)">
    <g class="primitive">
      <text text-anchor="middle" dy="0.35em">x2</text>
    </g>
  </g>
  <g transform="translate(76.28,48.64)">
    <g class="primitive">
      <text text-anchor="middle" dy="0.35em"></text>
    </g>
  </g>
</g>
</svg>
