<?xml version="1.0" encoding="UTF-8"?>
<svg xmlns="http://www.w3.org/2000/svg"
     xmlns:xlink="http://www.w3.org/1999/xlink"
     version="1.2"
     width="100mm" height="100mm" viewBox="0 0 100 100"
     stroke="none"
     fill="#000000"
     stroke-width="0.3"
     font-size="3.88"
>
<defs>
  <marker id="arrow" markerWidth="15" markerHeight="7" refX="5" refY="3.5" orient="auto" markerUnits="strokeWidth">
    <path d="M0,0 L15,3.5 L0,7 z" stroke="context-stroke" fill="context-stroke"/>
  </marker>
</defs>
<g stroke-width="1" fill="#000000" fill-opacity="0.000" stroke="#D3D3D3" id="img-48b5bba2-1">
  <g transform="translate(13.17,20.22)">
    <path fill="none" d="M4.45,10.92 L -4.45 -10.92" class="primitive"/>
  </g>
  <g transform="translate(29.7,40.62)">
    <path fill="none" d="M-7.77,-4.51 L 7.77 4.51" class="primitive"/>
  </g>
  <g transform="translate(15.13,50.02)">
    <path fill="none" d="M2.98,-12.28 L -2.98 12.28" class="primitive"/>
  </g>
  <g transform="translate(45.4,57.34)">
    <path fill="none" d="M6.49,10.79 L -6.49 -10.79" class="primitive"/>
  </g>
  <g transform="translate(45.43,82.36)">
    <path fill="none" d="M6.19,-8.46 L -6.19 8.46" class="primitive"/>
  </g>
  <g transform="translate(65.33,74.32)">
    <path fill="none" d="M-8.31,-2.3 L 8.31 2.3" class="primitive"/>
  </g>
  <g transform="translate(16.06,75.52)">
    <path fill="none" d="M3.81,11.23 L -3.81 -11.23" class="primitive"/>
  </g>
  <g transform="translate(31.02,90.96)">
    <path fill="none" d="M-6.57,-0.61 L 6.57 0.61" class="primitive"/>
  </g>
  <g transform="translate(81.99,78.99)">
    <path fill="none" d="M6.34,1.81 L -6.34 -1.81" class="primitive"/>
  </g>
</g>
<g stroke-width="1" stroke="#D3D3D3" id="img-48b5bba2-2">
</g>
<g font-size="4" stroke="#000000" stroke-opacity="0.000" fill="#000000" id="img-48b5bba2-3">
</g>
<g stroke-width="0" stroke="#000000" stroke-opacity="0.000" id="img-48b5bba2-4">
  <g transform="translate(18.93,34.36)" fill="#2E8B57">
    <circle cx="0" cy="0" r="3.33" class="primitive"/>
  </g>
  <g transform="translate(53.68,71.1)" fill="#2E8B57">
    <circle cx="0" cy="0" r="3.33" class="primitive"/>
  </g>
  <g transform="translate(20.99,90.04)" fill="#2E8B57">
    <circle cx="0" cy="0" r="3.33" class="primitive"/>
  </g>
  <g transform="translate(8.33,8.33)" fill="#00CDCD">
    <circle cx="0" cy="0" r="1" class="primitive"/>
  </g>
  <g transform="translate(38.38,45.65)" fill="#00CDCD">
    <circle cx="0" cy="0" r="1" class="primitive"/>
  </g>
  <g transform="translate(11.91,63.31)" fill="#00CDCD">
    <circle cx="0" cy="0" r="1" class="primitive"/>
  </g>
  <g transform="translate(38.62,91.67)" fill="#00CDCD">
    <circle cx="0" cy="0" r="1" class="primitive"/>
  </g>
  <g transform="translate(91.67,81.76)" fill="#2E8B57">
    <circle cx="0" cy="0" r="3.33" class="primitive"/>
  </g>
  <g transform="translate(74.65,76.89)" fill="#00CDCD">
    <circle cx="0" cy="0" r="1" class="primitive"/>
  </g>
</g>
<g font-size="4" stroke="#000000" stroke-opacity="0.000" fill="#000000" id="img-48b5bba2-5">
  <g transform="translate(18.93,34.36)">
    <g class="primitive">
      <text text-anchor="middle" dy="0.35em">x0</text>
    </g>
  </g>
  <g transform="translate(53.68,71.1)">
    <g class="primitive">
      <text text-anchor="middle" dy="0.35em">x1</text>
    </g>
  </g>
  <g transform="translate(20.99,90.04)">
    <g class="primitive">
      <text text-anchor="middle" dy="0.35em">l0</text>
    </g>
  </g>
  <g transform="translate(8.33,8.33)">
    <g class="primitive">
      <text text-anchor="middle" dy="0.35em"></text>
    </g>
  </g>
  <g transform="translate(38.38,45.65)">
    <g class="primitive">
      <text text-anchor="middle" dy="0.35em"></text>
    </g>
  </g>
  <g transform="translate(11.91,63.31)">
    <g class="primitive">
      <text text-anchor="middle" dy="0.35em"></text>
    </g>
  </g>
  <g transform="translate(38.62,91.67)">
    <g class="primitive">
      <text text-anchor="middle" dy="0.35em"></text>
    </g>
  </g>
  <g transform="translate(91.67,81.76)">
    <g class="primitive">
      <text text-anchor="middle" dy="0.35em">x2</text>
    </g>
  </g>
  <g transform="translate(74.65,76.89)">
    <g class="primitive">
      <text text-anchor="middle" dy="0.35em"></text>
    </g>
  </g>
</g>
</svg>
