<?xml version="1.0" encoding="UTF-8"?>
<svg xmlns="http://www.w3.org/2000/svg"
     xmlns:xlink="http://www.w3.org/1999/xlink"
     version="1.2"
     width="100mm" height="100mm" viewBox="0 0 100 100"
     stroke="none"
     fill="#000000"
     stroke-width="0.3"
     font-size="3.88"
>
<defs>
  <marker id="arrow" markerWidth="15" markerHeight="7" refX="5" refY="3.5" orient="auto" markerUnits="strokeWidth">
    <path d="M0,0 L15,3.5 L0,7 z" stroke="context-stroke" fill="context-stroke"/>
  </marker>
</defs>
<g stroke-width="1" fill="#000000" fill-opacity="0.000" stroke="#D3D3D3" id="img-3b8fdb35-1">
  <g transform="translate(81.85,17.98)">
    <path fill="none" d="M-2.54,8.65 L 2.54 -8.65" class="primitive"/>
  </g>
  <g transform="translate(67.7,38.65)">
    <path fill="none" d="M7.93,-6.49 L -7.93 6.49" class="primitive"/>
  </g>
  <g transform="translate(85.73,39.77)">
    <path fill="none" d="M-5.31,-7.04 L 5.31 7.04" class="primitive"/>
  </g>
  <g transform="translate(53.78,56.33)">
    <path fill="none" d="M-4.72,9.6 L 4.72 -9.6" class="primitive"/>
  </g>
  <g transform="translate(58.68,73.76)">
    <path fill="none" d="M-7.95,-3.37 L 7.95 3.37" class="primitive"/>
  </g>
  <g transform="translate(35.5,75.93)">
    <path fill="none" d="M9.02,-5.16 L -9.02 5.16" class="primitive"/>
  </g>
  <g transform="translate(89.62,57.23)">
    <path fill="none" d="M-1.83,8.57 L 1.83 -8.57" class="primitive"/>
  </g>
  <g transform="translate(76.21,73.84)">
    <path fill="none" d="M7.66,-3.28 L -7.66 3.28" class="primitive"/>
  </g>
  <g transform="translate(18,86.03)">
    <path fill="none" d="M-6.67,3.89 L 6.67 -3.89" class="primitive"/>
  </g>
</g>
<g stroke-width="1" stroke="#D3D3D3" id="img-3b8fdb35-2">
</g>
<g font-size="4" stroke="#000000" stroke-opacity="0.000" fill="#000000" id="img-3b8fdb35-3">
</g>
<g stroke-width="0" stroke="#000000" stroke-opacity="0.000" id="img-3b8fdb35-4">
  <g transform="translate(78.32,29.97)" fill="#2E8B57">
    <circle cx="0" cy="0" r="3.33" class="primitive"/>
  </g>
  <g transform="translate(47.53,69.04)" fill="#2E8B57">
    <circle cx="0" cy="0" r="3.33" class="primitive"/>
  </g>
  <g transform="translate(87.07,69.2)" fill="#2E8B57">
    <circle cx="0" cy="0" r="3.33" class="primitive"/>
  </g>
  <g transform="translate(84.69,8.33)" fill="#00CDCD">
    <circle cx="0" cy="0" r="1" class="primitive"/>
  </g>
  <g transform="translate(58.96,45.8)" fill="#00CDCD">
    <circle cx="0" cy="0" r="1" class="primitive"/>
  </g>
  <g transform="translate(91.67,47.64)" fill="#00CDCD">
    <circle cx="0" cy="0" r="1" class="primitive"/>
  </g>
  <g transform="translate(67.59,77.53)" fill="#00CDCD">
    <circle cx="0" cy="0" r="1" class="primitive"/>
  </g>
  <g transform="translate(8.33,91.67)" fill="#2E8B57">
    <circle cx="0" cy="0" r="3.33" class="primitive"/>
  </g>
  <g transform="translate(25.57,81.61)" fill="#00CDCD">
    <circle cx="0" cy="0" r="1" class="primitive"/>
  </g>
</g>
<g font-size="4" stroke="#000000" stroke-opacity="0.000" fill="#000000" id="img-3b8fdb35-5">
  <g transform="translate(78.32,29.97)">
    <g class="primitive">
      <text text-anchor="middle" dy="0.35em">x0</text>
    </g>
  </g>
  <g transform="translate(47.53,69.04)">
    <g class="primitive">
      <text text-anchor="middle" dy="0.35em">x1</text>
    </g>
  </g>
  <g transform="translate(87.07,69.2)">
    <g class="primitive">
      <text text-anchor="middle" dy="0.35em">l0</text>
    </g>
  </g>
  <g transform="translate(84.69,8.33)">
    <g class="primitive">
      <text text-anchor="middle" dy="0.35em"></text>
    </g>
  </g>
  <g transform="translate(58.96,45.8)">
    <g class="primitive">
      <text text-anchor="middle" dy="0.35em"></text>
    </g>
  </g>
  <g transform="translate(91.67,47.64)">
    <g class="primitive">
      <text text-anchor="middle" dy="0.35em"></text>
    </g>
  </g>
  <g transform="translate(67.59,77.53)">
    <g class="primitive">
      <text text-anchor="middle" dy="0.35em"></text>
    </g>
  </g>
  <g transform="translate(8.33,91.67)">
    <g class="primitive">
      <text text-anchor="middle" dy="0.35em">x2</text>
    </g>
  </g>
  <g transform="translate(25.57,81.61)">
    <g class="primitive">
      <text text-anchor="middle" dy="0.35em"></text>
    </g>
  </g>
</g>
</svg>
