<?xml version="1.0" encoding="UTF-8"?>
<svg xmlns="http://www.w3.org/2000/svg"
     xmlns:xlink="http://www.w3.org/1999/xlink"
     version="1.2"
     width="100mm" height="100mm" viewBox="0 0 100 100"
     stroke="none"
     fill="#000000"
     stroke-width="0.3"
     font-size="3.88"
>
<defs>
  <marker id="arrow" markerWidth="15" markerHeight="7" refX="5" refY="3.5" orient="auto" markerUnits="strokeWidth">
    <path d="M0,0 L15,3.5 L0,7 z" stroke="context-stroke" fill="context-stroke"/>
  </marker>
</defs>
<g stroke-width="1" fill="#000000" fill-opacity="0.000" stroke="#D3D3D3" id="img-2ecf7a02-1">
  <g transform="translate(84.44,43.55)">
    <path fill="none" d="M-6.23,-2.06 L 6.23 2.06" class="primitive"/>
  </g>
  <g transform="translate(65,48.02)">
    <path fill="none" d="M7.16,-5.51 L -7.16 5.51" class="primitive"/>
  </g>
  <g transform="translate(71.34,26.5)">
    <path fill="none" d="M2.7,10.53 L -2.7 -10.53" class="primitive"/>
  </g>
  <g transform="translate(48.32,54.58)">
    <path fill="none" d="M-7.65,0.36 L 7.65 -0.36" class="primitive"/>
  </g>
  <g transform="translate(38.48,39.65)">
    <path fill="none" d="M-0.99,12 L 0.99 -12" class="primitive"/>
  </g>
  <g transform="translate(28.32,66.22)">
    <path fill="none" d="M6.71,-8.4 L -6.71 8.4" class="primitive"/>
  </g>
  <g transform="translate(61.56,12.11)">
    <path fill="none" d="M-5.86,-2.44 L 5.86 2.44" class="primitive"/>
  </g>
  <g transform="translate(45.32,18.46)">
    <path fill="none" d="M5.17,-7.29 L -5.17 7.29" class="primitive"/>
  </g>
  <g transform="translate(15.39,82.59)">
    <path fill="none" d="M-4.93,6.34 L 4.93 -6.34" class="primitive"/>
  </g>
</g>
<g stroke-width="1" stroke="#D3D3D3" id="img-2ecf7a02-2">
</g>
<g font-size="4" stroke="#000000" stroke-opacity="0.000" fill="#000000" id="img-2ecf7a02-3">
</g>
<g stroke-width="0" stroke="#000000" stroke-opacity="0.000" id="img-2ecf7a02-4">
  <g transform="translate(74.91,40.4)" fill="#2E8B57">
    <circle cx="0" cy="0" r="3.33" class="primitive"/>
  </g>
  <g transform="translate(37.2,55.11)" fill="#2E8B57">
    <circle cx="0" cy="0" r="3.33" class="primitive"/>
  </g>
  <g transform="translate(52.5,8.33)" fill="#2E8B57">
    <circle cx="0" cy="0" r="3.33" class="primitive"/>
  </g>
  <g transform="translate(91.67,45.94)" fill="#00CDCD">
    <circle cx="0" cy="0" r="1" class="primitive"/>
  </g>
  <g transform="translate(57.01,54.16)" fill="#00CDCD">
    <circle cx="0" cy="0" r="1" class="primitive"/>
  </g>
  <g transform="translate(68.38,14.95)" fill="#00CDCD">
    <circle cx="0" cy="0" r="1" class="primitive"/>
  </g>
  <g transform="translate(39.55,26.61)" fill="#00CDCD">
    <circle cx="0" cy="0" r="1" class="primitive"/>
  </g>
  <g transform="translate(8.33,91.67)" fill="#2E8B57">
    <circle cx="0" cy="0" r="3.33" class="primitive"/>
  </g>
  <g transform="translate(20.96,75.43)" fill="#00CDCD">
    <circle cx="0" cy="0" r="1" class="primitive"/>
  </g>
</g>
<g font-size="4" stroke="#000000" stroke-opacity="0.000" fill="#000000" id="img-2ecf7a02-5">
  <g transform="translate(74.91,40.4)">
    <g class="primitive">
      <text text-anchor="middle" dy="0.35em">x0</text>
    </g>
  </g>
  <g transform="translate(37.2,55.11)">
    <g class="primitive">
      <text text-anchor="middle" dy="0.35em">x1</text>
    </g>
  </g>
  <g transform="translate(52.5,8.33)">
    <g class="primitive">
      <text text-anchor="middle" dy="0.35em">l0</text>
    </g>
  </g>
  <g transform="translate(91.67,45.94)">
    <g class="primitive">
      <text text-anchor="middle" dy="0.35em"></text>
    </g>
  </g>
  <g transform="translate(57.01,54.16)">
    <g class="primitive">
      <text text-anchor="middle" dy="0.35em"></text>
    </g>
  </g>
  <g transform="translate(68.38,14.95)">
    <g class="primitive">
      <text text-anchor="middle" dy="0.35em"></text>
    </g>
  </g>
  <g transform="translate(39.55,26.61)">
    <g class="primitive">
      <text text-anchor="middle" dy="0.35em"></text>
    </g>
  </g>
  <g transform="translate(8.33,91.67)">
    <g class="primitive">
      <text text-anchor="middle" dy="0.35em">x2</text>
    </g>
  </g>
  <g transform="translate(20.96,75.43)">
    <g class="primitive">
      <text text-anchor="middle" dy="0.35em"></text>
    </g>
  </g>
</g>
</svg>
