<?xml version="1.0" encoding="UTF-8"?>
<svg xmlns="http://www.w3.org/2000/svg"
     xmlns:xlink="http://www.w3.org/1999/xlink"
     version="1.2"
     width="100mm" height="100mm" viewBox="0 0 100 100"
     stroke="none"
     fill="#000000"
     stroke-width="0.3"
     font-size="3.88"
>
<defs>
  <marker id="arrow" markerWidth="15" markerHeight="7" refX="5" refY="3.5" orient="auto" markerUnits="strokeWidth">
    <path d="M0,0 L15,3.5 L0,7 z" stroke="context-stroke" fill="context-stroke"/>
  </marker>
</defs>
<g stroke-width="1" fill="#000000" fill-opacity="0.000" stroke="#D3D3D3" id="img-b088664d-1">
  <g transform="translate(12.93,80)">
    <path fill="none" d="M4.21,-10.7 L -4.21 10.7" class="primitive"/>
  </g>
  <g transform="translate(29.45,58.89)">
    <path fill="none" d="M-8.12,5.29 L 8.12 -5.29" class="primitive"/>
  </g>
  <g transform="translate(14.33,50.6)">
    <path fill="none" d="M3.2,12.12 L -3.2 -12.12" class="primitive"/>
  </g>
  <g transform="translate(45.27,41.21)">
    <path fill="none" d="M6.31,-10.92 L -6.31 10.92" class="primitive"/>
  </g>
  <g transform="translate(44.78,16.87)">
    <path fill="none" d="M6.34,7.73 L -6.34 -7.73" class="primitive"/>
  </g>
  <g transform="translate(65.18,23.06)">
    <path fill="none" d="M-8.6,3.06 L 8.6 -3.06" class="primitive"/>
  </g>
  <g transform="translate(14.72,25.56)">
    <path fill="none" d="M3.53,-10.91 L -3.53 10.91" class="primitive"/>
  </g>
  <g transform="translate(29.75,9.64)">
    <path fill="none" d="M-7,1.14 L 7 -1.14" class="primitive"/>
  </g>
  <g transform="translate(82.07,16.96)">
    <path fill="none" d="M6.34,-2.33 L -6.34 2.33" class="primitive"/>
  </g>
</g>
<g stroke-width="1" stroke="#D3D3D3" id="img-b088664d-2">
</g>
<g font-size="4" stroke="#000000" stroke-opacity="0.000" fill="#000000" id="img-b088664d-3">
</g>
<g stroke-width="0" stroke="#000000" stroke-opacity="0.000" id="img-b088664d-4">
  <g transform="translate(18.42,66.07)" fill="#2E8B57">
    <circle cx="0" cy="0" r="3.33" class="primitive"/>
  </g>
  <g transform="translate(53.32,27.29)" fill="#2E8B57">
    <circle cx="0" cy="0" r="3.33" class="primitive"/>
  </g>
  <g transform="translate(19.32,11.35)" fill="#2E8B57">
    <circle cx="0" cy="0" r="3.33" class="primitive"/>
  </g>
  <g transform="translate(8.33,91.67)" fill="#00CDCD">
    <circle cx="0" cy="0" r="1" class="primitive"/>
  </g>
  <g transform="translate(38.44,53.03)" fill="#00CDCD">
    <circle cx="0" cy="0" r="1" class="primitive"/>
  </g>
  <g transform="translate(10.87,37.47)" fill="#00CDCD">
    <circle cx="0" cy="0" r="1" class="primitive"/>
  </g>
  <g transform="translate(37.78,8.33)" fill="#00CDCD">
    <circle cx="0" cy="0" r="1" class="primitive"/>
  </g>
  <g transform="translate(91.67,13.44)" fill="#2E8B57">
    <circle cx="0" cy="0" r="3.33" class="primitive"/>
  </g>
  <g transform="translate(74.76,19.65)" fill="#00CDCD">
    <circle cx="0" cy="0" r="1" class="primitive"/>
  </g>
</g>
<g font-size="4" stroke="#000000" stroke-opacity="0.000" fill="#000000" id="img-b088664d-5">
  <g transform="translate(18.42,66.07)">
    <g class="primitive">
      <text text-anchor="middle" dy="0.35em">x0</text>
    </g>
  </g>
  <g transform="translate(53.32,27.29)">
    <g class="primitive">
      <text text-anchor="middle" dy="0.35em">x1</text>
    </g>
  </g>
  <g transform="translate(19.32,11.35)">
    <g class="primitive">
      <text text-anchor="middle" dy="0.35em">l0</text>
    </g>
  </g>
  <g transform="translate(8.33,91.67)">
    <g class="primitive">
      <text text-anchor="middle" dy="0.35em"></text>
    </g>
  </g>
  <g transform="translate(38.44,53.03)">
    <g class="primitive">
      <text text-anchor="middle" dy="0.35em"></text>
    </g>
  </g>
  <g transform="translate(10.87,37.47)">
    <g class="primitive">
      <text text-anchor="middle" dy="0.35em"></text>
    </g>
  </g>
  <g transform="translate(37.78,8.33)">
    <g class="primitive">
      <text text-anchor="middle" dy="0.35em"></text>
    </g>
  </g>
  <g transform="translate(91.67,13.44)">
    <g class="primitive">
      <text text-anchor="middle" dy="0.35em">x2</text>
    </g>
  </g>
  <g transform="translate(74.76,19.65)">
    <g class="primitive">
      <text text-anchor="middle" dy="0.35em"></text>
    </g>
  </g>
</g>
</svg>
