<?xml version="1.0" encoding="UTF-8"?>
<svg xmlns="http://www.w3.org/2000/svg"
     xmlns:xlink="http://www.w3.org/1999/xlink"
     version="1.2"
     width="100mm" height="100mm" viewBox="0 0 100 100"
     stroke="none"
     fill="#000000"
     stroke-width="0.3"
     font-size="3.88"
>
<defs>
  <marker id="arrow" markerWidth="15" markerHeight="7" refX="5" refY="3.5" orient="auto" markerUnits="strokeWidth">
    <path d="M0,0 L15,3.5 L0,7 z" stroke="context-stroke" fill="context-stroke"/>
  </marker>
</defs>
<g stroke-width="1" fill="#000000" fill-opacity="0.000" stroke="#D3D3D3" id="img-1340a40b-1">
  <g transform="translate(47.23,84.85)">
    <path fill="none" d="M-2.02,-5.83 L 2.02 5.83" class="primitive"/>
  </g>
  <g transform="translate(52.05,66.04)">
    <path fill="none" d="M-5.77,7.02 L 5.77 -7.02" class="primitive"/>
  </g>
  <g transform="translate(28.85,72.25)">
    <path fill="none" d="M11.84,2.71 L -11.84 -2.71" class="primitive"/>
  </g>
  <g transform="translate(58.52,49.69)">
    <path fill="none" d="M0.03,-7.48 L -0.03 7.48" class="primitive"/>
  </g>
  <g transform="translate(41.96,40.23)">
    <path fill="none" d="M13.14,-1.18 L -13.14 1.18" class="primitive"/>
  </g>
  <g transform="translate(68.85,29.4)">
    <path fill="none" d="M-7.72,7 L 7.72 -7" class="primitive"/>
  </g>
  <g transform="translate(12.71,62.85)">
    <path fill="none" d="M-2.81,-5.54 L 2.81 5.54" class="primitive"/>
  </g>
  <g transform="translate(19.07,47.19)">
    <path fill="none" d="M-7.83,5.12 L 7.83 -5.12" class="primitive"/>
  </g>
  <g transform="translate(83.62,15.85)">
    <path fill="none" d="M5.51,-5.15 L -5.51 5.15" class="primitive"/>
  </g>
</g>
<g stroke-width="1" stroke="#D3D3D3" id="img-1340a40b-2">
</g>
<g font-size="4" stroke="#000000" stroke-opacity="0.000" fill="#000000" id="img-1340a40b-3">
</g>
<g stroke-width="0" stroke="#000000" stroke-opacity="0.000" id="img-1340a40b-4">
  <g transform="translate(44.08,75.74)" fill="#2E8B57">
    <circle cx="0" cy="0" r="3.33" class="primitive"/>
  </g>
  <g transform="translate(58.56,38.74)" fill="#2E8B57">
    <circle cx="0" cy="0" r="3.33" class="primitive"/>
  </g>
  <g transform="translate(8.33,54.21)" fill="#2E8B57">
    <circle cx="0" cy="0" r="3.33" class="primitive"/>
  </g>
  <g transform="translate(49.58,91.67)" fill="#00CDCD">
    <circle cx="0" cy="0" r="1" class="primitive"/>
  </g>
  <g transform="translate(58.48,58.22)" fill="#00CDCD">
    <circle cx="0" cy="0" r="1" class="primitive"/>
  </g>
  <g transform="translate(15.99,69.31)" fill="#00CDCD">
    <circle cx="0" cy="0" r="1" class="primitive"/>
  </g>
  <g transform="translate(27.78,41.5)" fill="#00CDCD">
    <circle cx="0" cy="0" r="1" class="primitive"/>
  </g>
  <g transform="translate(91.67,8.33)" fill="#2E8B57">
    <circle cx="0" cy="0" r="3.33" class="primitive"/>
  </g>
  <g transform="translate(77.35,21.71)" fill="#00CDCD">
    <circle cx="0" cy="0" r="1" class="primitive"/>
  </g>
</g>
<g font-size="4" stroke="#000000" stroke-opacity="0.000" fill="#000000" id="img-1340a40b-5">
  <g transform="translate(44.08,75.74)">
    <g class="primitive">
      <text text-anchor="middle" dy="0.35em">x0</text>
    </g>
  </g>
  <g transform="translate(58.56,38.74)">
    <g class="primitive">
      <text text-anchor="middle" dy="0.35em">x1</text>
    </g>
  </g>
  <g transform="translate(8.33,54.21)">
    <g class="primitive">
      <text text-anchor="middle" dy="0.35em">l0</text>
    </g>
  </g>
  <g transform="translate(49.58,91.67)">
    <g class="primitive">
      <text text-anchor="middle" dy="0.35em"></text>
    </g>
  </g>
  <g transform="translate(58.48,58.22)">
    <g class="primitive">
      <text text-anchor="middle" dy="0.35em"></text>
    </g>
  </g>
  <g transform="translate(15.99,69.31)">
    <g class="primitive">
      <text text-anchor="middle" dy="0.35em"></text>
    </g>
  </g>
  <g transform="translate(27.78,41.5)">
    <g class="primitive">
      <text text-anchor="middle" dy="0.35em"></text>
    </g>
  </g>
  <g transform="translate(91.67,8.33)">
    <g class="primitive">
      <text text-anchor="middle" dy="0.35em">x2</text>
    </g>
  </g>
  <g transform="translate(77.35,21.71)">
    <g class="primitive">
      <text text-anchor="middle" dy="0.35em"></text>
    </g>
  </g>
</g>
</svg>
