<?xml version="1.0" encoding="UTF-8"?>
<svg xmlns="http://www.w3.org/2000/svg"
     xmlns:xlink="http://www.w3.org/1999/xlink"
     version="1.2"
     width="100mm" height="100mm" viewBox="0 0 100 100"
     stroke="none"
     fill="#000000"
     stroke-width="0.3"
     font-size="3.88"
>
<defs>
  <marker id="arrow" markerWidth="15" markerHeight="7" refX="5" refY="3.5" orient="auto" markerUnits="strokeWidth">
    <path d="M0,0 L15,3.5 L0,7 z" stroke="context-stroke" fill="context-stroke"/>
  </marker>
</defs>
<g stroke-width="1" fill="#000000" fill-opacity="0.000" stroke="#D3D3D3" id="img-6df34b22-1">
  <g transform="translate(19.97,13.25)">
    <path fill="none" d="M10.68,4.51 L -10.68 -4.51" class="primitive"/>
  </g>
  <g transform="translate(39.38,29.93)">
    <path fill="none" d="M-3.95,-7.73 L 3.95 7.73" class="primitive"/>
  </g>
  <g transform="translate(50.81,16.13)">
    <path fill="none" d="M-13.55,2.38 L 13.55 -2.38" class="primitive"/>
  </g>
  <g transform="translate(54.88,45.77)">
    <path fill="none" d="M10.2,6.62 L -10.2 -6.62" class="primitive"/>
  </g>
  <g transform="translate(80.81,46.74)">
    <path fill="none" d="M-9.82,5.77 L 9.82 -5.77" class="primitive"/>
  </g>
  <g transform="translate(69.37,65.86)">
    <path fill="none" d="M-0.96,-8.14 L 0.96 8.14" class="primitive"/>
  </g>
  <g transform="translate(77.38,17.82)">
    <path fill="none" d="M11.01,3.9 L -11.01 -3.9" class="primitive"/>
  </g>
  <g transform="translate(91.59,32.88)">
    <path fill="none" d="M0.05,-6.52 L -0.05 6.52" class="primitive"/>
  </g>
  <g transform="translate(70.83,82.13)">
    <path fill="none" d="M0.32,6.06 L -0.32 -6.06" class="primitive"/>
  </g>
</g>
<g stroke-width="1" stroke="#D3D3D3" id="img-6df34b22-2">
</g>
<g font-size="4" stroke="#000000" stroke-opacity="0.000" fill="#000000" id="img-6df34b22-3">
</g>
<g stroke-width="0" stroke="#000000" stroke-opacity="0.000" id="img-6df34b22-4">
  <g transform="translate(33.85,19.11)" fill="#2E8B57">
    <circle cx="0" cy="0" r="3.33" class="primitive"/>
  </g>
  <g transform="translate(68,54.27)" fill="#2E8B57">
    <circle cx="0" cy="0" r="3.33" class="primitive"/>
  </g>
  <g transform="translate(91.67,22.89)" fill="#2E8B57">
    <circle cx="0" cy="0" r="3.33" class="primitive"/>
  </g>
  <g transform="translate(8.33,8.33)" fill="#00CDCD">
    <circle cx="0" cy="0" r="1" class="primitive"/>
  </g>
  <g transform="translate(43.8,38.58)" fill="#00CDCD">
    <circle cx="0" cy="0" r="1" class="primitive"/>
  </g>
  <g transform="translate(65.39,13.57)" fill="#00CDCD">
    <circle cx="0" cy="0" r="1" class="primitive"/>
  </g>
  <g transform="translate(91.53,40.45)" fill="#00CDCD">
    <circle cx="0" cy="0" r="1" class="primitive"/>
  </g>
  <g transform="translate(71.33,91.67)" fill="#2E8B57">
    <circle cx="0" cy="0" r="3.33" class="primitive"/>
  </g>
  <g transform="translate(70.45,75.03)" fill="#00CDCD">
    <circle cx="0" cy="0" r="1" class="primitive"/>
  </g>
</g>
<g font-size="4" stroke="#000000" stroke-opacity="0.000" fill="#000000" id="img-6df34b22-5">
  <g transform="translate(33.85,19.11)">
    <g class="primitive">
      <text text-anchor="middle" dy="0.35em">x0</text>
    </g>
  </g>
  <g transform="translate(68,54.27)">
    <g class="primitive">
      <text text-anchor="middle" dy="0.35em">x1</text>
    </g>
  </g>
  <g transform="translate(91.67,22.89)">
    <g class="primitive">
      <text text-anchor="middle" dy="0.35em">l0</text>
    </g>
  </g>
  <g transform="translate(8.33,8.33)">
    <g class="primitive">
      <text text-anchor="middle" dy="0.35em"></text>
    </g>
  </g>
  <g transform="translate(43.8,38.58)">
    <g class="primitive">
      <text text-anchor="middle" dy="0.35em"></text>
    </g>
  </g>
  <g transform="translate(65.39,13.57)">
    <g class="primitive">
      <text text-anchor="middle" dy="0.35em"></text>
    </g>
  </g>
  <g transform="translate(91.53,40.45)">
    <g class="primitive">
      <text text-anchor="middle" dy="0.35em"></text>
    </g>
  </g>
  <g transform="translate(71.33,91.67)">
    <g class="primitive">
      <text text-anchor="middle" dy="0.35em">x2</text>
    </g>
  </g>
  <g transform="translate(70.45,75.03)">
    <g class="primitive">
      <text text-anchor="middle" dy="0.35em"></text>
    </g>
  </g>
</g>
</svg>
