<?xml version="1.0" encoding="UTF-8"?>
<svg xmlns="http://www.w3.org/2000/svg"
     xmlns:xlink="http://www.w3.org/1999/xlink"
     version="1.2"
     width="100mm" height="100mm" viewBox="0 0 100 100"
     stroke="none"
     fill="#000000"
     stroke-width="0.3"
     font-size="3.88"
>
<defs>
  <marker id="arrow" markerWidth="15" markerHeight="7" refX="5" refY="3.5" orient="auto" markerUnits="strokeWidth">
    <path d="M0,0 L15,3.5 L0,7 z" stroke="context-stroke" fill="context-stroke"/>
  </marker>
</defs>
<g stroke-width="1" fill="#000000" fill-opacity="0.000" stroke="#D3D3D3" id="img-2718519d-1">
  <g transform="translate(17.75,81.79)">
    <path fill="none" d="M2.64,-8.88 L -2.64 8.88" class="primitive"/>
  </g>
  <g transform="translate(31.96,61)">
    <path fill="none" d="M-7.88,6.39 L 7.88 -6.39" class="primitive"/>
  </g>
  <g transform="translate(14.15,59.56)">
    <path fill="none" d="M5.21,7.21 L -5.21 -7.21" class="primitive"/>
  </g>
  <g transform="translate(45.94,43.24)">
    <path fill="none" d="M4.84,-9.77 L -4.84 9.77" class="primitive"/>
  </g>
  <g transform="translate(41.32,25.4)">
    <path fill="none" d="M7.83,3.53 L -7.83 -3.53" class="primitive"/>
  </g>
  <g transform="translate(64.43,23.62)">
    <path fill="none" d="M-9.08,5.05 L 9.08 -5.05" class="primitive"/>
  </g>
  <g transform="translate(10.48,41.76)">
    <path fill="none" d="M1.93,-8.73 L -1.93 8.73" class="primitive"/>
  </g>
  <g transform="translate(23.97,25.06)">
    <path fill="none" d="M-7.61,3.22 L 7.61 -3.22" class="primitive"/>
  </g>
  <g transform="translate(81.99,13.8)">
    <path fill="none" d="M6.66,-3.76 L -6.66 3.76" class="primitive"/>
  </g>
</g>
<g stroke-width="1" stroke="#D3D3D3" id="img-2718519d-2">
</g>
<g font-size="4" stroke="#000000" stroke-opacity="0.000" fill="#000000" id="img-2718519d-3">
</g>
<g stroke-width="0" stroke="#000000" stroke-opacity="0.000" id="img-2718519d-4">
  <g transform="translate(21.39,69.58)" fill="#2E8B57">
    <circle cx="0" cy="0" r="3.33" class="primitive"/>
  </g>
  <g transform="translate(52.32,30.36)" fill="#2E8B57">
    <circle cx="0" cy="0" r="3.33" class="primitive"/>
  </g>
  <g transform="translate(13.16,29.63)" fill="#2E8B57">
    <circle cx="0" cy="0" r="3.33" class="primitive"/>
  </g>
  <g transform="translate(14.81,91.67)" fill="#00CDCD">
    <circle cx="0" cy="0" r="1" class="primitive"/>
  </g>
  <g transform="translate(40.64,53.95)" fill="#00CDCD">
    <circle cx="0" cy="0" r="1" class="primitive"/>
  </g>
  <g transform="translate(8.33,51.51)" fill="#00CDCD">
    <circle cx="0" cy="0" r="1" class="primitive"/>
  </g>
  <g transform="translate(32.54,21.44)" fill="#00CDCD">
    <circle cx="0" cy="0" r="1" class="primitive"/>
  </g>
  <g transform="translate(91.67,8.33)" fill="#2E8B57">
    <circle cx="0" cy="0" r="3.33" class="primitive"/>
  </g>
  <g transform="translate(74.42,18.07)" fill="#00CDCD">
    <circle cx="0" cy="0" r="1" class="primitive"/>
  </g>
</g>
<g font-size="4" stroke="#000000" stroke-opacity="0.000" fill="#000000" id="img-2718519d-5">
  <g transform="translate(21.39,69.58)">
    <g class="primitive">
      <text text-anchor="middle" dy="0.35em">x0</text>
    </g>
  </g>
  <g transform="translate(52.32,30.36)">
    <g class="primitive">
      <text text-anchor="middle" dy="0.35em">x1</text>
    </g>
  </g>
  <g transform="translate(13.16,29.63)">
    <g class="primitive">
      <text text-anchor="middle" dy="0.35em">l0</text>
    </g>
  </g>
  <g transform="translate(14.81,91.67)">
    <g class="primitive">
      <text text-anchor="middle" dy="0.35em"></text>
    </g>
  </g>
  <g transform="translate(40.64,53.95)">
    <g class="primitive">
      <text text-anchor="middle" dy="0.35em"></text>
    </g>
  </g>
  <g transform="translate(8.33,51.51)">
    <g class="primitive">
      <text text-anchor="middle" dy="0.35em"></text>
    </g>
  </g>
  <g transform="translate(32.54,21.44)">
    <g class="primitive">
      <text text-anchor="middle" dy="0.35em"></text>
    </g>
  </g>
  <g transform="translate(91.67,8.33)">
    <g class="primitive">
      <text text-anchor="middle" dy="0.35em">x2</text>
    </g>
  </g>
  <g transform="translate(74.42,18.07)">
    <g class="primitive">
      <text text-anchor="middle" dy="0.35em"></text>
    </g>
  </g>
</g>
</svg>
